# xmcd CD database file
#
# Track frame offsets:
#	150
#	28168
#	47366
#	80608
#	106443
#	128395
#	152872
#	175105
#	193444
#	223407
#	255104
#	268014
#	299958
#
# Disc length: 4469 seconds
#
# Revision: 1
# Processed by: cddbd v1.5.1PL0 Copyright (c) Steve Scherf et al.
# Submitted via: CDex 1.51
#
DISCID=c211730d
DTITLE=Various Artist - Namaste - Celebration
DYEAR=2004
DGENRE=New Age
TTITLE0=Savari - Prem Joshua
TTITLE1=Y'Mama - Zehava Ben
TTITLE2=Beniras Mix - M.O.C. Paoli
TTITLE3=Ja Vidi - Christophe Goze
TTITLE4=Letting Go - Real feat. Jon Michell
TTITLE5=Oceanic - Roberto
TTITLE6=Bangala Sara - Real
TTITLE7=Manali - Paco Fernandez
TTITLE8=Isfahan - Red Buddha feat. Voyage and Nasrin
TTITLE9=La Ilaha - Bahramji and Maneesh de Moor
TTITLE10=Song of the Dragon - D'n A
TTITLE11=Namaste - Maneesh De Moor
TTITLE12=Video Namaste: Celebration
EXTD=YEAR: 2004
EXTT0=
EXTT1=
EXTT2=
EXTT3=
EXTT4=
EXTT5=
EXTT6=
EXTT7=
EXTT8=
EXTT9=
EXTT10=
EXTT11=
EXTT12=
PLAYORDER=
